<svg xmlns="http://www.w3.org/2000/svg" viewBox="0 0 400 225" preserveAspectRatio="xMidYMid slice">
  <defs><linearGradient id="sg" x1="0" y1="0" x2="0" y2="1">
    <stop offset="0" stop-color="#0f2d33"/><stop offset="1" stop-color="#081a1e"/></linearGradient></defs>
  <rect width="400" height="225" fill="url(#sg)"/>
  <!-- art-nouveau arches — the Municipal House -->
  <g stroke="#2af4e4" stroke-opacity=".5" fill="none" stroke-width="2">
    <path d="M60,225 L60,120 Q110,60 160,120 L160,225"/>
    <path d="M180,225 L180,100 Q240,35 300,100 L300,225"/>
    <path d="M320,225 L320,140 Q360,95 400,140 L400,225"/>
  </g>
  <g fill="#2af4e4" opacity=".55"><circle cx="110" cy="95" r="3"/><circle cx="240" cy="70" r="3.4"/><circle cx="360" cy="118" r="2.6"/></g>
  <g fill="#e5817a" opacity=".5"><circle cx="70" cy="60" r="2.2"/><circle cx="180" cy="40" r="2"/><circle cx="300" cy="50" r="2.2"/><circle cx="350" cy="30" r="1.8"/></g>
  <path d="M0,205 Q100,199 200,205 T400,205" stroke="#a7f5ec" stroke-opacity=".3" fill="none"/>
</svg>
